<?xml version="1.0" encoding="UTF-8"?>
<svg version="1.1" xmlns="http://www.w3.org/2000/svg" width="512" height="512">
<path d="M0 0 C1.87259049 -0.00417522 3.74517845 -0.00965377 5.61776173 -0.01631981 C10.75255591 -0.0307684 15.8871895 -0.02653148 21.02199244 -0.019153 C26.56403404 -0.0144222 32.10604085 -0.02693042 37.64807129 -0.03717041 C48.50116363 -0.05436549 59.3541981 -0.05519693 70.20730053 -0.04995751 C79.02898519 -0.04591587 87.85065274 -0.0473593 96.67233658 -0.05270576 C98.55576454 -0.0538284 98.55576454 -0.0538284 100.47724155 -0.05497371 C103.02804271 -0.05650519 105.57884386 -0.05804354 108.129645 -0.05958868 C125.25580886 -0.06941718 142.38196619 -0.07358146 159.50813103 -0.06596279 C160.51230154 -0.06551703 160.51230154 -0.06551703 161.53675833 -0.06506227 C166.97285063 -0.06261343 172.40894285 -0.06000179 177.84503507 -0.05737813 C199.04703955 -0.04727664 220.24896482 -0.05563031 241.45095825 -0.07887268 C265.28272555 -0.10495575 289.11444549 -0.11774088 312.94623196 -0.11068493 C325.56059358 -0.10719145 338.17489017 -0.10943333 350.78924179 -0.12693596 C361.52763983 -0.1416509 372.26592703 -0.14230256 383.00432287 -0.12486505 C388.48213837 -0.1163469 393.95975581 -0.11422557 399.43756104 -0.1295166 C404.45502064 -0.14334911 409.47211225 -0.13861878 414.48955049 -0.11927737 C416.30171176 -0.11551267 418.1139024 -0.11845284 419.92603754 -0.12888902 C432.94976778 -0.19854201 444.99955672 0.75486482 454.75613403 10.38768005 C463.46523456 20.67388127 465.28448498 29.93902249 465.25613403 43.20018005 C465.28449341 44.39449646 465.31285278 45.58881287 465.34207153 46.81932068 C465.36683222 58.19066803 462.23252405 68.00413879 454.27175903 76.3447113 C445.7083459 83.29916017 436.12732851 86.54669176 425.17224598 86.51910782 C424.41308131 86.52116045 423.65391664 86.52321309 422.87174699 86.52532792 C420.3192618 86.53099761 417.76683059 86.52954071 415.21434021 86.52812195 C413.36924067 86.5307056 411.52414168 86.53371876 409.67904347 86.53712535 C404.60173849 86.54519857 399.52444764 86.5469851 394.447137 86.54772282 C388.97390432 86.5495728 383.50067899 86.55711986 378.02745056 86.56385803 C366.0563836 86.57744407 354.08531999 86.58346647 342.11424661 86.58786869 C334.64069501 86.5906306 327.1671447 86.59486785 319.69359398 86.59937286 C299.00498317 86.61156577 278.31637332 86.62190049 257.62775898 86.62524796 C256.29008361 86.62546959 254.95240824 86.62569137 253.61473287 86.62591331 C252.27384236 86.62613395 250.93295185 86.62635443 249.59206134 86.62657475 C246.90204195 86.62701731 244.21202256 86.62746442 241.52200317 86.62791443 C240.85503567 86.62802382 240.18806816 86.62813321 239.50088952 86.62824592 C217.87537649 86.63187639 196.24989697 86.64779644 174.62439677 86.67110479 C151.75640818 86.69570722 128.88843409 86.70941426 106.02043122 86.71061587 C93.55639606 86.7115329 81.0924048 86.71729226 68.62838173 86.73543549 C58.01541013 86.7508297 47.40249599 86.75596092 36.78951535 86.74769738 C31.37466094 86.74378853 25.95992229 86.74473208 20.54508209 86.75875473 C15.58617398 86.77147924 10.62746878 86.77030878 5.668561 86.75816402 C3.87648324 86.75620452 2.08439118 86.75929711 0.29233352 86.76800838 C-14.02259891 86.83317736 -26.0374025 85.39407922 -37.25167847 75.6415863 C-46.22609007 66.29809716 -48.04755659 55.2785176 -47.80636597 42.76268005 C-47.817323 41.51744568 -47.82828003 40.2722113 -47.83956909 38.98924255 C-47.75185394 27.9020475 -45.09728893 18.49335429 -37.24386597 10.38768005 C-25.62071232 0.52681035 -14.54640229 -0.05266614 0 0 Z " fill="#ffffff" transform="translate(47.243865966796875,383.61231994628906)"/>
<path d="M0 0 C1.3479846 -0.00270395 2.69596728 -0.0065938 4.04394531 -0.01159668 C6.85110281 -0.01744957 9.65774663 -0.00906727 12.46484375 0.00976562 C16.03201201 0.03255383 19.59797583 0.01940771 23.1651001 -0.00452423 C25.94328606 -0.01909787 28.72119454 -0.01432403 31.49938965 -0.00401306 C33.44393716 -0.00011246 35.38849623 -0.01208878 37.33300781 -0.02453613 C47.03514163 0.07698727 55.7665204 1.4170737 63.1875 8.09375 C70.43749877 16.3657699 71.33704982 25.82541418 71.20410156 36.43823242 C71.20468567 37.67854218 71.20526978 38.91885193 71.20587158 40.19674683 C71.20358001 43.56208673 71.1836717 46.92641661 71.15557575 50.29157805 C71.13038597 53.82157713 71.12820638 57.351593 71.12347412 60.88166809 C71.1110955 67.55025578 71.07834418 74.21857776 71.03807616 80.88704902 C70.99319804 88.48567083 70.97133131 96.08430605 70.95129442 103.68302763 C70.90960617 119.29925504 70.83935506 134.91521811 70.75 150.53125 C71.53847321 150.52236755 72.32694641 150.51348511 73.13931274 150.5043335 C80.58377813 150.42405852 88.02803253 150.36322051 95.47281837 150.32400131 C99.29993842 150.30316011 103.12669969 150.274907 106.95361328 150.22949219 C110.6494739 150.18590899 114.34499026 150.16208682 118.0410881 150.15174103 C119.44847403 150.14437187 120.85584193 150.12998137 122.2630806 150.10832977 C124.23981471 150.07913608 126.21689804 150.07761475 128.19384766 150.07714844 C129.87929184 150.06382477 129.87929184 150.06382477 131.5987854 150.05023193 C136.61273554 150.81558781 139.69790989 153.42378673 143.125 157.03125 C145.52548172 162.20151831 145.49323515 166.92601827 144.75 172.53125 C142.49963972 177.40703061 138.61451315 180.77522441 134.80078125 184.484375 C132.96985444 186.31181433 131.29225445 188.18087005 129.625 190.15625 C126.1971922 194.15272638 122.489664 197.83057129 118.75 201.53125 C113.33504466 206.87589652 113.33504466 206.87589652 108.25 212.53125 C104.39811224 217.09062735 100.10187792 221.20371864 95.86328125 225.3984375 C92.88199023 228.36065843 89.96436684 231.31832598 87.25 234.53125 C83.39811224 239.09062735 79.10187792 243.20371864 74.86328125 247.3984375 C71.88199023 250.36065843 68.96436684 253.31832598 66.25 256.53125 C62.43910331 261.0421073 58.20267971 265.13017706 53.98632812 269.2578125 C50.33300495 272.85771251 46.91993171 276.58982364 43.56689453 280.46972656 C40.39546818 284.06815764 37.05426231 287.49143685 33.6875 290.90625 C33.00623047 291.61652344 32.32496094 292.32679688 31.62304688 293.05859375 C27.14705982 297.59047689 23.79078335 300.17023958 17.2578125 300.75390625 C12.51134551 300.43488142 9.46942918 299.73864527 5.93359375 296.4609375 C4.90492188 295.51408081 4.90492188 295.51408081 3.85546875 294.5480957 C0.42862226 291.26549147 -2.96666564 287.95905575 -6.3125 284.59375 C-6.98087891 283.92923828 -7.64925781 283.26472656 -8.33789062 282.58007812 C-12.2383877 278.67199991 -15.92648466 274.64593719 -19.53295898 270.46655273 C-22.3002375 267.34751153 -25.27165405 264.44692865 -28.25 261.53125 C-32.44070606 257.38861252 -36.47690628 253.22185073 -40.28125 248.71875 C-43.14838676 245.53304249 -46.20431879 242.54540242 -49.25 239.53125 C-53.43844192 235.38616669 -57.47670717 231.22208641 -61.28125 226.71875 C-64.14838676 223.53304249 -67.20431879 220.54540242 -70.25 217.53125 C-74.43844192 213.38616669 -78.47670717 209.22208641 -82.28125 204.71875 C-85.14839938 201.53302847 -88.20448758 198.54559316 -91.25 195.53125 C-95.61144843 191.21029625 -99.90956502 186.89535432 -103.859375 182.1875 C-104.77496613 181.09702068 -105.72297817 180.0328429 -106.703125 179 C-110.21933482 175.20087674 -111.86561868 171.6435216 -112.25 166.53125 C-111.79743137 160.51208724 -109.45718931 156.73843931 -105.25 152.53125 C-101.82226958 150.302545 -98.95894113 150.28830141 -94.92089844 150.30419922 C-92.99935944 150.30442581 -92.99935944 150.30442581 -91.03900146 150.30465698 C-89.64579106 150.31486949 -88.25258224 150.32530147 -86.859375 150.3359375 C-85.43019814 150.33966936 -84.00101872 150.34251552 -82.57183838 150.34451294 C-78.81694429 150.35213581 -75.06220581 150.37177261 -71.30737305 150.3939209 C-67.47316594 150.41440841 -63.63893361 150.42352086 -59.8046875 150.43359375 C-52.28638752 150.45501988 -44.7682156 150.48913944 -37.25 150.53125 C-37.25368717 149.88686572 -37.25737434 149.24248144 -37.26117325 148.57857037 C-37.34971548 132.86073127 -37.41580219 117.14297956 -37.45724869 101.42495251 C-37.4778274 93.82365621 -37.50585752 86.22252694 -37.55175781 78.62133789 C-37.59177009 71.99202697 -37.61746687 65.36283708 -37.62635398 58.73340875 C-37.63154457 55.22684091 -37.6436446 51.72061916 -37.67292023 48.21416283 C-37.70542411 44.28878935 -37.70595023 40.36374684 -37.70410156 36.43823242 C-37.71848267 35.29023666 -37.73286377 34.14224091 -37.74768066 32.9594574 C-37.69996566 23.55540682 -36.01475937 15.31295336 -29.6875 8.09375 C-21.17484678 0.43489186 -10.96560981 -0.07019387 0 0 Z " fill="#ffffff" transform="translate(239.25,41.46875)"/>
</svg>
